<?xml version="1.0" encoding="utf-8"?>
<!-- Generator: Adobe Illustrator 16.0.0, SVG Export Plug-In . SVG Version: 6.00 Build 0)  -->
<!DOCTYPE svg PUBLIC "-//W3C//DTD SVG 1.1//EN" "http://www.w3.org/Graphics/SVG/1.1/DTD/svg11.dtd">
<svg version="1.1" id="Layer_1" xmlns="http://www.w3.org/2000/svg" xmlns:xlink="http://www.w3.org/1999/xlink" x="0px" y="0px"
	 width="18px" height="18px" viewBox="0 0 512 512" enable-background="new 0 0 512 512" xml:space="preserve">
<g>
	<path fill="#757576" d="M58.895,56.589c0,0,48.598,275.667,48.556,291.158c-0.077,27.567-34.799,34.775-41.938,9.279
		C35.877,251.192,1.833,46.917,7.458,38.06C37.717-9.586,130.106-9.636,164.113,49.31c9.926,17.206,47.172,142.509,56.606,176.341
		c0,0,167.083-1.083,167.736-1.049c40.582,2.277,180.503,193.524,83.375,201.248c-83.381,6.617-337.498,0-337.498,0
		s-51.616-7.94-5.293-50.291l313.675-1.327l-54.265-95.294l-195.536-5.752c-1.224,7.519-84.166-208.655-85.049-213.949"/>
	<path fill="#757576" d="M261.392,136.001h97.057c0,0,15.299,8.546,16.768,22.057c2.205,20.294-22.062,30.883-22.062,30.883H263.6
		c0,0-20.722-7.473-20.735-22.5C242.836,141.295,261.392,136.001,261.392,136.001z"/>
	<path fill="#757576" d="M111.396,454.529h341.466c0,0,11.469,52.939-19.414,52.939c-30.878,0-301.759,0-301.759,0
		S102.571,509.598,111.396,454.529z"/>
</g>
</svg>
